<?xml version="1.0" encoding="UTF-8"?>
<svg width="512px" height="512px" viewBox="0 0 512 512" version="1.1" xmlns="http://www.w3.org/2000/svg" xmlns:xlink="http://www.w3.org/1999/xlink">
    <title>ion:warning-outline</title>
    <g id="Page-1" stroke="none" stroke-width="1" fill="none" fill-rule="evenodd">
        <g id="ion:warning-outline">
            <rect id="ViewBox" x="0" y="0" width="512" height="512"></rect>
            <path d="M85.57,446.25 L426.43,446.25 C437.691876,446.25 448.123636,440.326195 453.897916,430.657299 C459.672196,420.988403 459.938833,408.995983 454.6,399.08 L284.18,82.58 C272.09,60.14 239.91,60.14 227.82,82.58 L57.4,399.08 C52.0611667,408.995983 52.3278041,420.988403 58.1020841,430.657299 C63.8763642,440.326195 74.3081241,446.25 85.57,446.25 Z" id="Path" stroke="#B79862" stroke-width="32" stroke-linecap="round" stroke-linejoin="round"></path>
            <path d="M250.26,195.39 L256,317.39 L261.73,195.44 C261.801517,193.864407 261.221557,192.328805 260.126336,191.193861 C259.031114,190.058917 257.517141,189.424639 255.94,189.439727 L255.94,189.439727 C254.391001,189.455153 252.913887,190.095741 251.844245,191.216229 C250.774603,192.336716 250.203252,193.841967 250.26,195.39 L250.26,195.39 Z" id="Path" stroke="#B79862" stroke-width="32" stroke-linecap="round" stroke-linejoin="round"></path>
            <path d="M256,397.25 C244.954305,397.25 236,388.295695 236,377.25 C236,366.204305 244.954305,357.25 256,357.25 C267.045695,357.25 276,366.204305 276,377.25 C276,388.295695 267.045695,397.25 256,397.25 Z" id="Path" fill="#B79862" fill-rule="nonzero"></path>
        </g>
    </g>
</svg>