<?xml version="1.0" encoding="UTF-8"?>
<svg width="43px" height="50px" viewBox="0 0 43 50" version="1.1" xmlns="http://www.w3.org/2000/svg" xmlns:xlink="http://www.w3.org/1999/xlink">
    <!-- Generator: Sketch 52 (66869) - http://www.bohemiancoding.com/sketch -->
    <title>Storage</title>
    <desc>Created with Sketch.</desc>
    <defs>
        <polygon id="path-1" points="0 0.505617978 42.3872333 0.505617978 42.3872333 49.9998876 0 49.9998876"></polygon>
    </defs>
    <g id="Page-1" stroke="none" stroke-width="1" fill="none" fill-rule="evenodd">
        <g id="Desktop" transform="translate(-294.000000, -804.000000)">
            <g id="Security-Features" transform="translate(143.000000, 798.000000)">
                <g id="Icons">
                    <g id="Storage" transform="translate(151.000000, 6.000000)">
                        <g id="Group-3">
                            <mask id="mask-2" fill="white">
                                <use xlink:href="#path-1"></use>
                            </mask>
                            <g id="Clip-2"></g>
                            <path d="M15.7532767,20.898764 C7.53661,20.898764 2.32327667,18.4830337 2.32327667,16.7976404 L2.32327667,10.2807865 C4.81661,11.9661798 9.34994333,13.2583146 15.7532767,13.2583146 C22.15661,13.2583146 26.6899433,12.0223596 29.1832767,10.2807865 L29.1832767,16.7414607 C29.1832767,18.4268539 23.97051,20.898764 15.7532767,20.898764 Z M40.12051,29.9437079 L40.12051,35.0560674 C40.13751,40.3386517 36.9369767,45.1088764 32.01661,47.1347191 L30.8832767,47.5841573 L29.92051,47.1908989 C25.0953433,45.1088764 21.9786767,40.3852809 21.9871767,35.168427 L21.9871767,29.8875281 C21.9724433,29.4729213 22.19061,29.0835955 22.5538433,28.8762921 L30.8832767,24.3257303 L39.49661,28.8762921 C39.9006433,29.0774157 40.1448767,29.4965169 40.12051,29.9437079 Z M15.7532767,40.7864045 C7.53661,40.7864045 2.32327667,38.371236 2.32327667,36.6858427 L2.32327667,30.1122472 C4.81661,31.7976404 9.34994333,33.0897753 15.7532767,33.0897753 C17.1132767,33.0897753 18.4732767,33.0341573 19.7199433,32.921236 L19.7199433,35.2813483 C19.72051,37.0425843 20.0270767,38.7914607 20.62661,40.4493258 C19.01161,40.668427 17.3835767,40.7813483 15.7532767,40.7864045 Z M2.26661,20.168427 C4.75994333,21.8538202 9.29327667,23.1459551 15.7532767,23.1459551 C22.2132767,23.1459551 26.6899433,21.8538202 29.1832767,20.168427 L29.1832767,22.7526966 L21.47661,26.9661798 C20.3846433,27.5639326 19.71031,28.7066292 19.7199433,29.9437079 L19.7199433,30.6178652 C18.4024433,30.7616854 17.07871,30.8364045 15.7532767,30.8425843 C7.53661,30.8425843 2.32327667,28.4268539 2.32327667,26.7414607 L2.32327667,20.168427 L2.26661,20.168427 Z M15.7532767,2.75269663 C23.97051,2.75269663 29.1832767,5.16842697 29.1832767,6.85382022 C29.1832767,8.53921348 23.9132767,10.9549438 15.7532767,10.9549438 C7.59327667,10.9549438 2.32327667,8.53921348 2.32327667,6.85382022 C2.32327667,5.16842697 7.53661,2.75269663 15.7532767,2.75269663 Z M31.4499433,6.85382022 C31.4499433,3.70775281 26.06661,0.505505618 15.7532767,0.505505618 C5.43994333,0.505505618 -5.66666667e-05,3.70775281 -5.66666667e-05,6.85382022 L-5.66666667e-05,36.6291011 C-5.66666667e-05,39.7757303 5.38327667,42.9774157 15.69661,42.9774157 C17.6697433,42.9774157 19.6400433,42.8274157 21.5899433,42.5279775 C23.2372433,45.5330337 25.8501433,47.9055056 29.0132767,49.2695506 L30.3732767,49.8880899 L30.82661,49.9998876 L31.2799433,49.8880899 L32.86661,49.2133708 C38.1360433,47.0588764 41.7757433,42.1970787 42.3299433,36.5729213 C42.3724433,36.4465169 42.3911433,36.312809 42.3871767,36.1796629 L42.3871767,29.9437079 C42.3854767,28.6948315 41.6873433,27.548764 40.5732767,26.9661798 L31.4499433,22.0785393 L31.4499433,6.85382022 Z" id="Fill-1" fill="#B59761" mask="url(#mask-2)"></path>
                        </g>
                        <path d="M28.6439311,35.6286787 C28.2465551,35.1572574 27.540355,35.0950254 27.0666031,35.4909973 C26.5928513,35.8864184 26.5314185,36.5885939 26.928241,37.060566 L29.031345,39.5933543 C29.4148847,40.0625727 30.1066953,40.13637 30.5810005,39.7591228 L36.1713829,35.3533158 C36.6805555,35.017373 36.8200245,34.3333715 36.482421,33.8267037 C36.1453709,33.3194851 35.4585414,33.1807022 34.9488154,33.516645 C34.8907033,33.5540944 34.8364654,33.5976017 34.7877619,33.6455149 L30.0275521,37.3904508 L28.6439311,35.6286787 Z" id="Fill-4" fill="#B59761"></path>
                    </g>
                </g>
            </g>
        </g>
    </g>
</svg>