<svg xmlns="http://www.w3.org/2000/svg" width="1355.352" height="249.202" viewBox="0 0 1355.352 249.202">
  <g>
    <path d="M195.7,55.83H180.988q-.022,16.713-6.559,29.367a47.09,47.09,0,0,1-18.4,19.579q-11.83,6.888-27.323,6.884H118.6V170.2a2.571,2.571,0,0,1-2.582,2.582H90.845a2.573,2.573,0,0,1-2.582-2.582V111.66H79.012q-15.49,0-27.323-6.884A46.425,46.425,0,0,1,33.4,85.2Q26.969,72.547,26.95,55.83H10.635A10.634,10.634,0,0,0,0,66.464v124.3A10.635,10.635,0,0,0,10.635,201.4H195.7a10.636,10.636,0,0,0,10.635-10.635V66.464A10.635,10.635,0,0,0,195.7,55.83Z"/>
    <path d="M78.152,84.058H130c7.459,0,13.483-3.7,18.072-8.359,4.57-4.638,6.859-12.175,6.88-19.869H52.984c.021,7.694,2.314,15.231,6.88,19.869C64.456,80.362,70.551,84.058,78.152,84.058Z"/>
    <path d="M180.99,55.722q0-16.565-6.239-29.151A46.734,46.734,0,0,0,157.11,6.992,49.21,49.21,0,0,0,130.862,0a1.941,1.941,0,0,0-1.506.753,2.722,2.722,0,0,0-.645,1.829l-.838,16.869-.238,5.569q0,2.583,2.367,2.583c7.459,0,13.483,3.7,18.072,8.358,3.016,3.063,5.02,8.14,6.054,12.471a31.258,31.258,0,0,1,.831,7.29c0,.037,0,.071,0,.108h26.034C180.988,55.793,180.99,55.759,180.99,55.722Z"/>
    <path d="M52.979,55.722a31.258,31.258,0,0,1,.831-7.29c1.035-4.331,3.04-9.408,6.054-12.471C64.456,31.3,70.551,27.6,78.152,27.6c1.58,0,2.366-.717,2.366-2.152V25.02l-.333-5.569L79.012,2.582Q78.583,0,76.645,0,61.8,0,50.505,6.992A46.3,46.3,0,0,0,33.078,26.571q-6.131,12.585-6.13,29.151c0,.037,0,.071,0,.108H52.984C52.983,55.793,52.979,55.759,52.979,55.722Z"/>
  </g>
  <g>
    <path d="M303.381,202.022A46.621,46.621,0,0,1,284,183.81q-6.819-11.712-6.815-27.051v-49.2q0-15.336,6.815-27.051a45.964,45.964,0,0,1,19.383-18.1q12.566-6.39,29.181-6.39,16.4,0,28.862,6.07a45.823,45.823,0,0,1,19.383,17.253q6.918,11.183,6.922,25.88,0,1.917-2.556,2.343l-24.921,1.491h-.426q-2.132,0-2.13-2.343,0-11.287-6.922-18.1t-18.212-6.816q-11.5,0-18.424,6.816t-6.923,18.1v51.333q0,11.077,6.923,17.892t18.424,6.816q11.287,0,18.212-6.816t6.922-17.892q0-2.342,2.556-2.343l24.921,1.065a2.694,2.694,0,0,1,1.811.639,1.922,1.922,0,0,1,.745,1.491,48.723,48.723,0,0,1-6.922,25.986,46.265,46.265,0,0,1-19.383,17.466q-12.46,6.18-28.862,6.177Q315.948,208.518,303.381,202.022Z"/>
    <path d="M470.583,98.823q1.7.854,1.278,3.2L467.388,126.3q-.214,2.556-2.982,1.491a23.633,23.633,0,0,0-7.455-1.065,35.351,35.351,0,0,0-4.686.426,20.942,20.942,0,0,0-12.993,5.644q-5.326,5.008-5.325,13.313v58.149a2.544,2.544,0,0,1-2.555,2.556H406.47a2.545,2.545,0,0,1-2.556-2.556V99.888a2.547,2.547,0,0,1,2.556-2.556h24.922a2.545,2.545,0,0,1,2.555,2.556v8.094a.854.854,0,0,0,.426.852.42.42,0,0,0,.639-.213q8.732-12.78,23.43-12.78Q466.11,95.841,470.583,98.823Z"/>
    <path d="M485.854,248.455a3.58,3.58,0,0,1-.426-1.81v-19.6a2.545,2.545,0,0,1,2.556-2.555A69.215,69.215,0,0,0,502.149,223a15.385,15.385,0,0,0,8.307-4.9q3.086-3.624,4.792-10.65a1.947,1.947,0,0,0,0-1.278L480.316,100.1a2.355,2.355,0,0,1-.213-1.065q0-1.917,2.343-1.917h26.625a2.808,2.808,0,0,1,2.982,2.13l17.892,69.012q.21.639.639.639t.64-.639l17.891-69.012a2.806,2.806,0,0,1,2.983-2.13h25.985a2.08,2.08,0,0,1,1.811.745A2.607,2.607,0,0,1,580,100.1l-36.849,110.76q-5.326,15.546-10.862,23.324a31.766,31.766,0,0,1-15.55,11.4q-10.014,3.619-28.328,3.622h-1.492A1.237,1.237,0,0,1,485.854,248.455Z"/>
    <path d="M693.294,152.286a82.573,82.573,0,0,1-4.047,26.625,45.8,45.8,0,0,1-15.442,21.62q-10.543,7.987-26.092,7.987-15.336,0-23.857-10.649c-.286-.427-.568-.567-.851-.427a.856.856,0,0,0-.426.852v45.582a2.545,2.545,0,0,1-2.557,2.556H595.1a2.544,2.544,0,0,1-2.555-2.556V99.888a2.545,2.545,0,0,1,2.555-2.556h24.921a2.547,2.547,0,0,1,2.557,2.556v7.029c0,.426.139.676.426.745a.874.874,0,0,0,.851-.319q8.947-11.712,24.708-11.715,14.7,0,25.454,8.2t15.442,22.9Q693.3,137.589,693.294,152.286Zm-31.1-.426q0-13.419-4.473-21.3-4.9-9.156-15.762-9.159-9.8,0-14.7,9.159-4.473,7.668-4.474,21.513,0,14.272,4.686,22.152,4.9,8.523,14.485,8.52t14.91-8.307Q662.193,166.131,662.2,151.86Z"/>
    <path d="M770.143,120.655a2.459,2.459,0,0,1-1.81.746H747.886a.942.942,0,0,0-1.067,1.065v45.156q0,7.029,2.877,10.437t9.266,3.408h7.027a2.545,2.545,0,0,1,2.557,2.556v20.235q0,2.347-2.557,2.769-8.945.425-12.779.426-17.683,0-26.412-5.857t-8.946-22.046V122.466a.943.943,0,0,0-1.066-1.065h-12.14a2.547,2.547,0,0,1-2.556-2.556V99.888a2.547,2.547,0,0,1,2.556-2.556h12.14a.942.942,0,0,0,1.066-1.065V70.92a2.544,2.544,0,0,1,2.555-2.556h23.858a2.542,2.542,0,0,1,2.554,2.556V96.267a.941.941,0,0,0,1.067,1.065h20.447a2.549,2.549,0,0,1,2.557,2.556v18.957A2.459,2.459,0,0,1,770.143,120.655Z"/>
    <path d="M871.21,106.065q10.434,10.439,10.437,28.329v69.864a2.545,2.545,0,0,1-2.556,2.556H854.17a2.544,2.544,0,0,1-2.556-2.556V140.571q0-8.517-4.793-13.845a17.743,17.743,0,0,0-25.346,0q-4.794,5.326-4.792,13.845v63.687a2.547,2.547,0,0,1-2.557,2.556H789.205a2.544,2.544,0,0,1-2.556-2.556V60.27a2.544,2.544,0,0,1,2.556-2.556h24.921a2.547,2.547,0,0,1,2.557,2.556v47.073a.853.853,0,0,0,.425.852.42.42,0,0,0,.639-.213q8.731-12.351,25.986-12.354Q860.772,95.628,871.21,106.065Z"/>
    <path d="M998.115,158.889a2.48,2.48,0,0,1-2.768,2.556H929.529c-.851,0-1.137.356-.851,1.065a37.931,37.931,0,0,0,2.342,8.52q5.537,11.933,22.579,11.928,13.629-.209,21.512-11.076a1.92,1.92,0,0,1,3.408-.426l15.336,15.123a2.955,2.955,0,0,1,1.066,1.917,4.419,4.419,0,0,1-.853,1.7,46.437,46.437,0,0,1-18.1,13.525,60.528,60.528,0,0,1-24.282,4.792q-18.322,0-30.992-8.307a46.119,46.119,0,0,1-18.212-23.217q-4.473-10.648-4.472-27.9A61.321,61.321,0,0,1,901.2,128.43a46.815,46.815,0,0,1,17.147-24.069q12.246-8.946,29.075-8.946,21.3,0,34.186,12.354t15.656,33.016A91.8,91.8,0,0,1,998.115,158.889Zm-68.16-24.921a50.371,50.371,0,0,0-1.49,6.817.939.939,0,0,0,1.064,1.064h36.85c.851,0,1.135-.353.851-1.064q-1.068-6.177-1.065-5.965a18.4,18.4,0,0,0-6.709-9.9,19.446,19.446,0,0,0-11.821-3.514Q934.215,121.4,929.955,133.968Z"/>
    <path d="M1080.971,98.823q1.7.854,1.278,3.2l-4.474,24.282q-.213,2.556-2.981,1.491a23.633,23.633,0,0,0-7.455-1.065,35.363,35.363,0,0,0-4.687.426,20.945,20.945,0,0,0-12.993,5.644q-5.327,5.008-5.324,13.313v58.149a2.545,2.545,0,0,1-2.557,2.556h-24.921a2.544,2.544,0,0,1-2.555-2.556V99.888a2.545,2.545,0,0,1,2.555-2.556h24.921a2.547,2.547,0,0,1,2.557,2.556v8.094a.854.854,0,0,0,.426.852.419.419,0,0,0,.638-.213q8.733-12.78,23.43-12.78Q1076.5,95.841,1080.971,98.823Z"/>
    <path d="M1097.519,80.185a16.319,16.319,0,0,1-4.793-12.034,16.834,16.834,0,1,1,33.655,0,17.022,17.022,0,0,1-28.862,12.034Zm-2.555,125.884a2.45,2.45,0,0,1-.746-1.811V99.675a2.545,2.545,0,0,1,2.556-2.556H1121.7a2.544,2.544,0,0,1,2.556,2.556V204.258a2.544,2.544,0,0,1-2.556,2.556h-24.921A2.448,2.448,0,0,1,1094.964,206.069Z"/>
    <path d="M1162.056,199.146q-12.78-9.37-17.466-25.56a75.727,75.727,0,0,1-2.983-21.726,78.981,78.981,0,0,1,2.983-22.578,45.765,45.765,0,0,1,17.678-24.708q12.782-8.946,30.672-8.946,17.465,0,29.821,8.839t17.465,24.6a73.014,73.014,0,0,1,3.409,22.365,75.017,75.017,0,0,1-2.983,21.513q-4.687,16.614-17.359,26.092t-30.566,9.479Q1174.837,208.518,1162.056,199.146Zm42.6-20.661a23.673,23.673,0,0,0,7.029-11.715,61.5,61.5,0,0,0,1.7-14.91,57.752,57.752,0,0,0-1.7-15.123,23.672,23.672,0,0,0-7.243-11.289,19.758,19.758,0,0,0-23.962,0,22.692,22.692,0,0,0-6.922,11.289q-1.707,5.112-1.7,15.123,0,9.585,1.492,14.91a23.286,23.286,0,0,0,7.135,11.715,18.229,18.229,0,0,0,12.247,4.26A17.537,17.537,0,0,0,1204.656,178.485Z"/>
    <path d="M1344.915,106.065q10.434,10.439,10.437,28.329v69.864a2.545,2.545,0,0,1-2.556,2.556h-24.921a2.544,2.544,0,0,1-2.556-2.556V140.571q0-8.517-4.793-13.845a17.743,17.743,0,0,0-25.346,0q-4.794,5.326-4.792,13.845v63.687a2.545,2.545,0,0,1-2.557,2.556H1262.91a2.545,2.545,0,0,1-2.556-2.556V99.888a2.547,2.547,0,0,1,2.556-2.556h24.921a2.547,2.547,0,0,1,2.557,2.556v7.455a.853.853,0,0,0,.425.852.419.419,0,0,0,.639-.213q8.731-12.351,25.986-12.354Q1334.477,95.628,1344.915,106.065Z"/>
  </g>
</svg>
