<?xml version="1.0" encoding="UTF-8"?>
<svg width="54px" height="49px" viewBox="0 0 54 49" version="1.1" xmlns="http://www.w3.org/2000/svg" xmlns:xlink="http://www.w3.org/1999/xlink">
    <!-- Generator: Sketch 52 (66869) - http://www.bohemiancoding.com/sketch -->
    <title>Backup</title>
    <desc>Created with Sketch.</desc>
    <g id="Page-1" stroke="none" stroke-width="1" fill="none" fill-rule="evenodd">
        <g id="Desktop" transform="translate(-694.000000, -1047.000000)" fill="#B59761">
            <g id="Security-Features" transform="translate(143.000000, 798.000000)">
                <g id="Icons">
                    <path d="M578.44,259.78 L578.44,261.276599 L578.44,273.249388 L578.44,273.950544 L578.985804,274.418231 L586.263196,280.404626 L587.400652,281.34 L589.22,279.001565 L588.082544,278.06619 L581.350957,272.524286 L581.350957,261.276599 L581.350957,259.78 L578.44,259.78 Z M580.195833,249 C567.839258,249 557.577297,258.027136 555.772396,269.787879 L551,269.787879 L556.988889,277.212121 L562.977778,269.787879 L558.814003,269.787879 C560.586714,259.658985 569.468236,251.969697 580.195833,251.969697 C592.203556,251.969697 601.905556,261.591515 601.905556,273.5 C601.905556,285.408485 592.203556,295.030303 580.195833,295.030303 C572.382579,295.030303 565.538028,290.97147 561.714871,284.844985 L559.164353,286.329833 C563.516778,293.331636 571.307574,298 580.195833,298 C593.822053,298 604.9,287.012864 604.9,273.5 C604.9,259.986394 593.822053,249 580.195833,249 Z" id="Backup"></path>
                </g>
            </g>
        </g>
    </g>
</svg>