<?xml version="1.0" encoding="UTF-8"?>
<svg width="51px" height="50px" viewBox="0 0 51 50" version="1.1" xmlns="http://www.w3.org/2000/svg" xmlns:xlink="http://www.w3.org/1999/xlink">
    <!-- Generator: Sketch 52 (66869) - http://www.bohemiancoding.com/sketch -->
    <title>Malware</title>
    <desc>Created with Sketch.</desc>
    <defs>
        <polygon id="path-1" points="0 0 50.8196721 0 50.8196721 50 0 50"></polygon>
    </defs>
    <g id="Page-1" stroke="none" stroke-width="1" fill="none" fill-rule="evenodd">
        <g id="Desktop" transform="translate(-693.000000, -798.000000)">
            <g id="Security-Features" transform="translate(143.000000, 798.000000)">
                <g id="Icons">
                    <g id="Malware" transform="translate(550.000000, 0.000000)">
                        <mask id="mask-2" fill="white">
                            <use xlink:href="#path-1"></use>
                        </mask>
                        <g id="Clip-2"></g>
                        <path d="M24.3533838,19.4723618 L24.3533838,19.5351759 L24.3533838,21.5452261 C24.3533838,22.1105528 24.8503916,22.6130653 25.4095254,22.6130653 C25.5959034,22.6130653 25.7822813,22.5502513 25.9065333,22.4874372 C26.2171632,22.298995 26.4656671,21.9221106 26.4656671,21.5452261 L26.4656671,19.5351759 L26.4656671,19.4723618 L26.5277931,19.4723618 C27.0248009,19.0954774 27.2733048,18.5929648 27.2733048,17.9648241 C27.2733048,17.0854271 26.652045,16.3316583 25.7822813,16.1432161 C25.6580294,16.1432161 25.5337774,16.080402 25.4716514,16.080402 C24.7882656,16.080402 24.1048799,16.5201005 23.79425,17.2110553 C23.3593681,18.0276382 23.607872,18.9698492 24.3533838,19.4723618 Z M17.5816521,23.5552764 C17.5816521,23.9949749 17.9544079,24.3718593 18.3892898,24.3718593 L32.4297611,24.3718593 C32.8646429,24.3718593 33.2373988,23.9949749 33.2373988,23.5552764 L33.2373988,14.6356784 C33.2373988,14.1959799 32.8646429,13.8190955 32.4297611,13.8190955 L18.3892898,13.8190955 C17.9544079,13.8190955 17.5816521,14.1959799 17.5816521,14.6356784 L17.5816521,23.5552764 Z M20.2530692,7.85175879 L20.2530692,11.1809045 L30.5038557,11.1809045 L30.5038557,7.85175879 C30.5038557,4.96231156 28.2051945,2.63819095 25.3473995,2.63819095 C22.4896044,2.63819095 20.2530692,5.02512563 20.2530692,7.85175879 Z M14.972361,23.5552764 L14.972361,14.6356784 C14.972361,13.0025126 16.1527546,11.620603 17.6437781,11.2437186 L17.6437781,7.85175879 C17.6437781,3.51758794 21.1228329,0 25.4095254,0 C29.6968393,0 33.1752728,3.51758794 33.1752728,7.85175879 L33.1752728,11.2437186 C34.7284223,11.5577889 35.8466899,13.0025126 35.8466899,14.6356784 L35.8466899,23.5552764 C35.8466899,25.4396985 34.2935404,27.0100503 32.4297611,27.0100503 L18.3892898,27.0100503 C16.4633845,27.0728643 14.972361,25.5025126 14.972361,23.5552764 Z M0,38.1281407 L0,8.79396985 C0,7.22361809 1.24251958,5.90452261 2.85779504,5.90452261 L13.1707076,5.90452261 C13.9162193,5.90452261 14.4753531,6.53266332 14.4753531,7.22361809 C14.4753531,7.91457286 13.8540933,8.54271357 13.1707076,8.54271357 L2.85779504,8.54271357 C2.73354308,8.54271357 2.6714171,8.60552764 2.6714171,8.73115578 L2.6714171,38.0653266 C2.6714171,38.1909548 2.73354308,38.2531407 2.85779504,38.2531407 L47.9612558,38.2531407 C48.0855078,38.2531407 48.1476338,38.1909548 48.1476338,38.0653266 L48.1476338,8.79396985 C48.1476338,8.66834171 48.0855078,8.60552764 47.9612558,8.60552764 L37.7104693,8.60552764 C36.9649575,8.60552764 36.4058237,7.97738693 36.4058237,7.28643216 C36.4058237,6.59547739 37.0270835,5.96733668 37.7104693,5.96733668 L47.9612558,5.96733668 C49.5144053,5.96733668 50.8196721,7.22361809 50.8196721,8.85678392 L50.8196721,38.1909548 C50.8196721,39.7613065 49.5771525,41.0797739 47.9612558,41.0797739 L26.714171,41.0797739 L26.714171,47.3611809 L35.660312,47.3611809 C36.4058237,47.3611809 36.9649575,47.9893216 36.9649575,48.6809045 C36.9649575,49.3718593 36.3436978,50 35.660312,50 L15.0966129,50 C14.3511012,50 13.7919674,49.3718593 13.7919674,48.6809045 C13.7919674,47.9893216 14.4132271,47.3611809 15.0966129,47.3611809 L24.0427539,47.3611809 L24.0427539,41.0797739 L2.85779504,41.0797739 C1.30464556,41.0175879 0,39.7613065 0,38.1281407 Z" id="Fill-1" fill="#B59761" mask="url(#mask-2)"></path>
                    </g>
                </g>
            </g>
        </g>
    </g>
</svg>