<?xml version="1.0" encoding="UTF-8"?>
<svg width="60px" height="68px" viewBox="0 0 60 68" version="1.1" xmlns="http://www.w3.org/2000/svg" xmlns:xlink="http://www.w3.org/1999/xlink">
    <title>discord_icon</title>
    <g id="Page-1" stroke="none" stroke-width="1" fill="none" fill-rule="evenodd">
        <g id="join" transform="translate(-416.000000, -887.000000)">
            <g id="engage" transform="translate(186.000000, 761.000000)">
                <g id="discord_icon" transform="translate(232.265422, 128.750000)">
                    <path d="M41.1043733,14.9388695 C38.6838614,13.8845976 36.0882598,13.1078157 33.3744489,12.6628623 C33.3250361,12.6542826 33.2756233,12.6758113 33.2502019,12.7187099 C32.9163875,13.2823494 32.546586,14.0175831 32.2876852,14.5955221 C29.3687555,14.1806771 26.4647609,14.1806771 23.605651,14.5955221 C23.3466707,14.004793 22.963523,13.2823494 22.6281992,12.7187099 C22.6027778,12.6772413 22.553365,12.6557125 22.5039522,12.6628623 C19.7915712,13.1063858 17.1959697,13.8831676 14.7740278,14.9388695 C14.7530552,14.9474493 14.7351014,14.9618282 14.7231056,14.9804176 C9.79985965,21.9628742 8.45109696,28.7737365 9.11276762,35.5001523 C9.11578641,35.5330412 9.13524965,35.5645001 9.16218041,35.5845194 C12.4103963,37.8490871 15.5569267,39.2238272 18.6449879,40.1350246 C18.6944007,40.1494035 18.7467528,40.1322441 18.7782118,40.0935559 C19.508679,39.1466098 20.1598634,38.148106 20.7181803,37.0980444 C20.7510692,37.0365565 20.7196102,36.9635495 20.652323,36.9392403 C19.6194209,36.5672938 18.636011,36.1138401 17.6899387,35.598819 C17.6151045,35.5573504 17.6091464,35.4557443 17.677943,35.4071259 C17.8770241,35.2654812 18.0761847,35.1181167 18.2662889,34.9694017 C18.3006872,34.9422326 18.3485906,34.9364333 18.3890264,34.9535928 C24.6040754,37.6473844 31.332636,37.6473844 37.4743602,34.9535928 C37.514796,34.9350034 37.5626994,34.9408026 37.5986071,34.9679717 C37.7887908,35.1166867 37.9878719,35.2654812 38.1884624,35.4071259 C38.257259,35.4557443 38.2528103,35.5573504 38.1779761,35.598819 C37.2319038,36.1238497 36.2484145,36.5672938 35.2140824,36.9378103 C35.1467157,36.9621195 35.1167662,37.0365565 35.1497345,37.0980444 C35.7200471,38.1465966 36.371152,39.1451004 37.0881936,40.092126 C37.1181432,40.1322441 37.1720047,40.1494035 37.2214175,40.1350246 C40.3244932,39.2238272 43.4709442,37.8490871 46.71916,35.5845194 C46.7476002,35.5645001 46.7656335,35.5344711 46.7685728,35.5015822 C47.5604486,27.7251049 45.4422922,20.9700902 41.1537066,14.9817681 C41.1432203,14.9618282 41.1253459,14.9474493 41.1043733,14.9388695 Z M21.6462987,31.4044514 C19.7751268,31.4044514 18.2333205,29.7736703 18.2333205,27.7708634 C18.2333205,25.7681359 19.7451772,24.1372754 21.6462987,24.1372754 C23.5622757,24.1372754 25.0891469,25.7824354 25.0591974,27.7708634 C25.0591974,29.7736703 23.5472612,31.4044514 21.6462987,31.4044514 Z M34.2650708,31.4044514 C32.3938989,31.4044514 30.8521721,29.7736703 30.8521721,27.7708634 C30.8521721,25.7681359 32.3639493,24.1372754 34.2650708,24.1372754 C36.1810478,24.1372754 37.707919,25.7824354 37.6779695,27.7708634 C37.6779695,29.7736703 36.1810478,31.4044514 34.2650708,31.4044514 Z" id="Shape" fill="#5165F6" fill-rule="nonzero"></path>
                    <path d="M6.42120037,0 L48.3936341,0 C51.933163,0 54.8148344,2.75996663 54.8148344,6.18001509 L54.8148344,60 L48.0804745,54.2999722 L44.2903862,50.9399817 L40.2810386,47.3700266 L41.9412131,52.9199889 L6.42120037,52.9199889 C2.88167146,52.9199889 0,50.1600222 0,46.7399738 L0,6.18001509 C0,2.75996663 2.88167146,0 6.42120037,0 Z" id="Path" stroke="#5165F6" stroke-width="4"></path>
                </g>
            </g>
        </g>
    </g>
</svg>