<?xml version="1.0" encoding="UTF-8"?>
<svg width="62px" height="60px" viewBox="0 0 62 60" version="1.1" xmlns="http://www.w3.org/2000/svg" xmlns:xlink="http://www.w3.org/1999/xlink">
    <title>github_icon</title>
    <g id="Page-1" stroke="none" stroke-width="1" fill="none" fill-rule="evenodd">
        <g id="join" transform="translate(-413.000000, -1300.000000)" fill="#000000" fill-rule="nonzero">
            <g id="engage" transform="translate(186.000000, 761.000000)">
                <g id="github_icon" transform="translate(227.005828, 539.000000)">
                    <path d="M30.7497824,0 C23.4314585,-0.00217050452 16.3525067,2.60575191 10.785694,7.35481359 C5.21886741,12.1038822 1.52950316,18.6825319 0.380988308,25.9078558 C-0.76752654,33.1331099 0.700156838,40.5309686 4.52011874,46.7711765 C8.34006668,53.0113843 14.2617165,57.684546 21.22018,59.9503129 L21.9631333,59.9503129 C22.325575,59.972778 22.6886447,59.9179408 23.0282726,59.789499 C23.3679004,59.6610572 23.6763422,59.4618014 23.9331561,59.2051271 C24.1899002,58.9484527 24.389156,58.6400807 24.5176676,58.3005924 C24.6461792,57.9610343 24.7010163,57.5981042 24.6785512,57.2357322 L24.6785512,56.6979649 C24.6785512,56.2626161 24.6785512,55.6736395 24.6785512,53.9066399 C24.6533652,53.7388493 24.5951792,53.5777563 24.5072024,53.43264 C24.4192257,53.2875936 24.303342,53.1614541 24.1661793,53.0615471 C24.0173653,52.9411983 23.8435049,52.8557332 23.6572957,52.8114309 C23.4710864,52.7670588 23.2773423,52.7650355 23.0902958,52.8054309 C16.224902,54.2907096 14.7646698,49.9884315 14.6622513,49.7067804 C13.8025073,47.4304089 12.2645541,45.4728047 10.2560895,44.0984562 C10.1357407,43.9943632 10.0072291,43.9001771 9.87181051,43.8167353 C10.1695081,43.6565493 10.5099732,43.5938284 10.8452754,43.637433 C11.4890892,43.7269446 12.0988565,43.981526 12.6150657,44.3764794 C13.1313446,44.771363 13.5365538,45.2931536 13.7912049,45.8910604 C14.7822512,47.6159902 16.4038555,48.889455 18.3149946,49.4434782 C20.2261337,49.9975711 22.2777146,49.7889665 24.0380863,48.8616876 C24.2270165,48.779083 24.3932025,48.652176 24.5225513,48.491711 C24.6519001,48.3311761 24.7405047,48.1418273 24.7809698,47.9397809 C24.8790628,46.7551997 25.386272,45.6416419 26.2155276,44.7898514 C26.3996439,44.6263863 26.5327601,44.4133863 26.5988996,44.1762468 C26.6649694,43.9391771 26.6613415,43.6880144 26.5883647,43.4528982 C26.515388,43.2178517 26.3761322,43.0087587 26.1873416,42.8507355 C25.9985509,42.6927123 25.7682487,42.5923868 25.5239231,42.5618984 C19.4526222,41.8704334 13.2532981,39.744899 13.2532981,29.2709247 C13.2020888,26.6405533 14.1652281,24.0913911 15.9431114,22.1516473 C16.1067858,21.9708799 16.2154834,21.747066 16.2563672,21.5066475 C16.2971811,21.2661592 16.2685067,21.019043 16.173623,20.7943918 C15.4616464,18.8059504 15.4707162,16.6307417 16.1992276,14.6482305 C18.5658085,15.0676025 20.7871335,16.0809743 22.6548075,17.5932531 C22.8090633,17.70216 22.9859237,17.7747879 23.1722725,17.8058344 C23.3585515,17.8368809 23.5494352,17.8255088 23.730691,17.7725553 C26.0190626,17.1519741 28.3788062,16.833416 30.7497824,16.8250439 C33.1296888,16.8269974 35.4987115,17.1456253 37.7945482,17.7725553 C37.9720365,17.8214623 38.1581062,17.8308111 38.3396411,17.7998344 C38.5211759,17.7688577 38.693641,17.6983228 38.844827,17.5932531 C40.7154312,16.0857185 42.9354307,15.0729746 45.3003371,14.6482305 C45.9977323,16.6200672 45.9977323,18.7713458 45.3003371,20.7431826 C45.2054534,20.9678337 45.176779,21.2149499 45.2176627,21.4554382 C45.2584767,21.6958568 45.3671743,21.9196009 45.5309185,22.1004381 C47.2903832,24.0207864 48.2521271,26.5389021 48.2207318,29.1428318 C48.2207318,39.6168758 41.9957332,41.7168056 35.8988277,42.4082705 C35.6487812,42.4342938 35.4119208,42.5332937 35.2177581,42.6929914 C35.0235953,42.852689 34.8807814,43.0658983 34.8070372,43.3061773 C34.7332931,43.5464563 34.7318977,43.8031307 34.8030605,44.0442469 C34.8742233,44.2852933 35.0147349,44.5000375 35.2071534,44.6618281 C35.7746417,45.2473164 36.2082462,45.9488976 36.4780369,46.718223 C36.7478275,47.4875484 36.8473856,48.3061994 36.7698042,49.1177341 L36.7698042,57.2613368 C36.7571763,57.6617321 36.8332926,58.0599645 36.9927111,58.4274296 C37.1521297,58.7948946 37.3910134,59.1225922 37.6920598,59.3868712 C38.0754318,59.6738944 38.5206178,59.8672897 38.992106,59.951778 C39.4635245,60.0362664 39.9481988,60.0094757 40.4074778,59.8734292 C47.3192669,57.5618949 53.1846143,52.8705937 56.9570786,46.6365951 C60.729473,40.4025268 62.1634727,33.031389 61.0032404,25.8383674 C59.8430081,18.6453458 56.1639625,12.0984404 50.6226149,7.36576708 C45.0812674,2.63305888 38.0381063,0.0225501874 30.7497824,0 Z" id="Path"></path>
                </g>
            </g>
        </g>
    </g>
</svg>