<?xml version="1.0" encoding="UTF-8"?>
<svg width="60px" height="47px" viewBox="0 0 60 47" version="1.1" xmlns="http://www.w3.org/2000/svg" xmlns:xlink="http://www.w3.org/1999/xlink">
    <!-- Generator: Sketch 52 (66869) - http://www.bohemiancoding.com/sketch -->
    <title>Open Source</title>
    <desc>Created with Sketch.</desc>
    <defs>
        <polygon id="path-1" points="0 46.8906977 59.3511628 46.8906977 59.3511628 -7.10542736e-15 0 -7.10542736e-15"></polygon>
    </defs>
    <g id="Page-1" stroke="none" stroke-width="1" fill="none" fill-rule="evenodd">
        <g id="Desktop" transform="translate(-273.000000, -1050.000000)">
            <g id="Security-Features" transform="translate(143.000000, 798.000000)">
                <g id="Icons">
                    <g id="Open-Source" transform="translate(130.000000, 252.000000)">
                        <path d="M6.99513023,5.13742791 C7.96136279,5.13742791 8.74396744,5.92003256 8.74396744,6.88626512 C8.74396744,7.85140465 7.96136279,8.63510233 6.99513023,8.63510233 C6.0299907,8.63510233 5.24629302,7.85140465 5.24629302,6.88626512 C5.24629302,5.92003256 6.0299907,5.13742791 6.99513023,5.13742791" id="Fill-1" fill="#B59761"></path>
                        <path d="M13.0067581,5.13742791 C13.9729907,5.13742791 14.7555953,5.92003256 14.7555953,6.88626512 C14.7555953,7.85140465 13.9729907,8.63510233 13.0067581,8.63510233 C12.0416186,8.63510233 11.2579209,7.85140465 11.2579209,6.88626512 C11.2579209,5.92003256 12.0416186,5.13742791 13.0067581,5.13742791" id="Fill-3" fill="#B59761"></path>
                        <path d="M19.018386,5.13742791 C19.9846186,5.13742791 20.7672233,5.92003256 20.7672233,6.88626512 C20.7672233,7.85140465 19.9846186,8.63510233 19.018386,8.63510233 C18.0532465,8.63510233 17.2695488,7.85140465 17.2695488,6.88626512 C17.2695488,5.92003256 18.0532465,5.13742791 19.018386,5.13742791" id="Fill-5" fill="#B59761"></path>
                        <mask id="mask-2" fill="white">
                            <use xlink:href="#path-1"></use>
                        </mask>
                        <g id="Clip-8"></g>
                        <path d="M2.73255814,10.9302326 L56.6186047,10.9302326 L56.6186047,2.73255814 L2.73255814,2.73255814 L2.73255814,10.9302326 Z M2.73255814,44.2674419 L56.6186047,44.2674419 L56.6186047,13.6627907 L2.73255814,13.6627907 L2.73255814,44.2674419 Z M0,46.8906977 L59.3511628,46.8906977 L59.3511628,-7.10542736e-15 L0,-7.10542736e-15 L0,46.8906977 Z" id="Fill-7" fill="#B59761" mask="url(#mask-2)"></path>
                        <polygon id="Fill-9" fill="#B59761" mask="url(#mask-2)" points="24.3746372 31.4788512 18.4723116 28.418386 24.3746372 25.3579209 23.5002186 23.3904791 15.5211488 27.6532698 15.5211488 29.1835023 23.5002186 33.3369907"></polygon>
                        <polygon id="Fill-10" fill="#B59761" mask="url(#mask-2)" points="33.8841581 20.5486186 31.479507 20.5486186 25.6864837 35.6323395 28.2004372 35.6323395"></polygon>
                        <polygon id="Fill-11" fill="#B59761" mask="url(#mask-2)" points="36.1790698 33.3372093 44.1581395 29.1837209 44.1581395 27.6534884 36.1790698 23.3906977 35.1953488 25.3581395 41.0976744 28.4186047 35.1953488 31.4790698"></polygon>
                    </g>
                </g>
            </g>
        </g>
    </g>
</svg>